<?xml version="1.0" encoding="UTF-8" standalone="no"?>
<!-- Created with Inkscape (http://www.inkscape.org/) -->

<svg
   xmlns:dc="http://purl.org/dc/elements/1.1/"
   xmlns:cc="http://creativecommons.org/ns#"
   xmlns:rdf="http://www.w3.org/1999/02/22-rdf-syntax-ns#"
   xmlns:svg="http://www.w3.org/2000/svg"
   xmlns="http://www.w3.org/2000/svg"
   xmlns:sodipodi="http://sodipodi.sourceforge.net/DTD/sodipodi-0.dtd"
   xmlns:inkscape="http://www.inkscape.org/namespaces/inkscape"
   id="svg4255"
   version="1.1"
   inkscape:version="0.91 r13725"
   xml:space="preserve"
   width="400"
   height="400"
   viewBox="0 0 400 400"
   sodipodi:docname="FSWneu1.svg"><metadata
     id="metadata4261"><rdf:RDF><cc:Work
         rdf:about=""><dc:format>image/svg+xml</dc:format><dc:type
           rdf:resource="http://purl.org/dc/dcmitype/StillImage" /><dc:title></dc:title></cc:Work></rdf:RDF></metadata><defs
     id="defs4259"><clipPath
       clipPathUnits="userSpaceOnUse"
       id="clipPath4297"><path
         d="M 41.874,192.546 C 99.717,214.4 169.532,212.605 217.351,184.238 280.285,146.905 281.286,77.687 219.586,29.632 203.393,17.021 184.118,7.63 163.906,0.561 c 13.475,6.123 26.148,13.582 37.457,22.391 61.699,48.054 60.699,117.272 -2.236,154.605 -42.491,25.206 -103.859,29.693 -157.253,14.989"
         id="path4299"
         inkscape:connector-curvature="0" /></clipPath><clipPath
       clipPathUnits="userSpaceOnUse"
       id="clipPath4303"><path
         d="m 0.03,216.03 265.98,0 0,-216 -265.98,0 0,216 z"
         id="path4305"
         inkscape:connector-curvature="0" /></clipPath></defs><sodipodi:namedview
     pagecolor="#ffffff"
     bordercolor="#666666"
     borderopacity="1"
     objecttolerance="10"
     gridtolerance="10"
     guidetolerance="10"
     inkscape:pageopacity="0"
     inkscape:pageshadow="2"
     inkscape:window-width="1280"
     inkscape:window-height="690"
     id="namedview4257"
     showgrid="false"
     inkscape:zoom="0.97035431"
     inkscape:cx="141.40198"
     inkscape:cy="194.29969"
     inkscape:window-x="0"
     inkscape:window-y="1"
     inkscape:window-maximized="1"
     inkscape:current-layer="g4263" /><g
     id="g4263"
     inkscape:groupmode="layer"
     inkscape:label="FSWneu"
     transform="matrix(1.25,0,0,-1.25,0,400)"><path
       d="m 37.265396,40.087521 0,-15.170684 2.477655,0 0,6.778416 c 0.779512,0.886007 1.2486,1.205023 1.794718,1.205023 0.487483,0 0.896785,-0.296228 1.111783,-0.818986 0.175908,-0.408823 0.175908,-0.454397 0.175908,-1.591059 l 0,-5.573394 2.477654,0 0,6.436613 c 0,0.613905 -0.195453,1.432892 -0.469087,1.978436 -0.507028,1.024068 -1.364722,1.5924 -2.399473,1.5924 -0.974966,0 -1.853355,-0.545545 -2.691503,-1.65942 l 0,6.822655 -2.477655,0"
       style="fill:#231f20;fill-opacity:1;fill-rule:nonzero;stroke:none"
       id="path4265"
       inkscape:connector-curvature="0" /><path
       d="m 55.274667,29.397806 0,0.341803 c 0,1.136657 -0.234543,2.250533 -0.643845,3.115094 -0.643845,1.341743 -1.833809,2.069583 -3.395134,2.069583 -2.340837,0 -4.057375,-2.069583 -4.057375,-4.889787 0,-3.115098 1.853355,-5.277169 4.505767,-5.277169 1.268146,0 2.634017,0.546884 3.41468,1.388658 l 0,1.818927 c -0.800208,-0.750626 -1.931536,-1.227809 -2.849016,-1.227809 -1.501539,0 -2.554686,1.113875 -2.53514,2.6607 l 5.560063,0 z m -5.540518,1.524035 c 0.174758,1.387317 0.740422,2.092369 1.677447,2.092369 0.838148,0 1.54063,-0.887347 1.657901,-2.092369 l -3.335348,0"
       style="fill:#231f20;fill-opacity:1;fill-rule:evenodd;stroke:none"
       id="path4267"
       inkscape:connector-curvature="0" /><path
       d="m 65.128949,24.916837 0,9.84794 -2.477655,0 0,-6.777074 c -0.780662,-0.887347 -1.2486,-1.205024 -1.795868,-1.205024 -0.487483,0 -0.896785,0.294889 -1.111783,0.817647 -0.174758,0.410163 -0.174758,0.455738 -0.174758,1.592399 l 0,5.572052 -2.477654,0 0,-6.435272 c 0,-0.615244 0.194303,-1.432892 0.467937,-1.979777 0.507028,-1.022727 1.365872,-1.592398 2.399473,-1.592398 0.974966,0 1.853355,0.546884 2.692653,1.66076 l 0,-1.501253 2.477655,0"
       style="fill:#231f20;fill-opacity:1;fill-rule:evenodd;stroke:none"
       id="path4269"
       inkscape:connector-curvature="0" /><path
       d="m 70.319951,38.268593 -3.648073,-3.867065 0,-1.455677 1.170418,0 0,-4.389818 c 0,-1.205022 0.09773,-1.750567 0.410452,-2.320238 0.487483,-0.886006 1.560175,-1.478465 2.711048,-1.478465 0.663391,0 1.424508,0.182295 2.107443,0.524098 l 0,2.318898 c -0.546118,-0.408823 -1.072692,-0.636692 -1.483143,-0.636692 -0.779513,0 -1.268145,0.613905 -1.268145,1.592399 l 0,4.389818 2.751288,0 0,1.818926 -2.751288,0 0,3.503816"
       style="fill:#231f20;fill-opacity:1;fill-rule:nonzero;stroke:none"
       id="path4271"
       inkscape:connector-curvature="0" /><path
       d="m 82.165553,29.397806 0,0.341803 c 0,1.136657 -0.233393,2.250533 -0.643845,3.115094 -0.643845,1.341743 -1.833809,2.069583 -3.393984,2.069583 -2.340837,0 -4.058524,-2.069583 -4.058524,-4.889787 0,-3.115098 1.853354,-5.277169 4.506916,-5.277169 1.268145,0 2.634017,0.546884 3.414679,1.388658 l 0,1.818927 c -0.800207,-0.750626 -1.931535,-1.227809 -2.849015,-1.227809 -1.501539,0 -2.555835,1.113875 -2.53629,2.6607 l 5.560063,0 z m -5.540518,1.524035 c 0.175908,1.387317 0.741572,2.092369 1.678597,2.092369 0.838148,0 1.540629,-0.887347 1.657901,-2.092369 l -3.336498,0"
       style="fill:#231f20;fill-opacity:1;fill-rule:evenodd;stroke:none"
       id="path4273"
       inkscape:connector-curvature="0" /><path
       d="m 97.074023,24.916837 0,9.84794 -2.477658,0 0,-6.777074 c -0.780662,-0.887347 -1.248599,-1.205024 -1.794718,-1.205024 -0.487483,0 -0.897934,0.294889 -1.111783,0.817647 -0.175908,0.410163 -0.175908,0.455738 -0.175908,1.592399 l 0,5.572052 -2.477654,0 0,-6.435272 c 0,-0.615244 0.195453,-1.432892 0.467937,-1.979777 0.507029,-1.022727 1.365872,-1.592398 2.399474,-1.592398 0.976115,0 1.853354,0.546884 2.692652,1.66076 l 0,-1.501253 2.477658,0"
       style="fill:#231f20;fill-opacity:1;fill-rule:evenodd;stroke:none"
       id="path4275"
       inkscape:connector-curvature="0" /><path
       d="m 99.358523,34.764777 0,-9.84794 2.477647,0 0,6.778416 c 0.78066,0.886007 1.2486,1.205023 1.79587,1.205023 0.48748,0 0.89678,-0.296228 1.11178,-0.818986 0.17476,-0.408823 0.17476,-0.454397 0.17476,-1.591059 l 0,-5.573394 2.47766,0 0,6.436613 c 0,0.613905 -0.1943,1.432892 -0.46794,1.978436 -0.50703,1.024068 -1.36587,1.5924 -2.39948,1.5924 -0.97496,0 -1.85335,-0.545545 -2.69265,-1.65942 l 0,1.499911 -2.477647,0"
       style="fill:#231f20;fill-opacity:1;fill-rule:evenodd;stroke:none"
       id="path4277"
       inkscape:connector-curvature="0" /><path
       d="m 118.01164,24.916837 0,15.170684 -2.47765,0 0,-5.685993 c -0.58521,0.340463 -1.2486,0.522758 -1.97063,0.522758 -1.09224,0 -2.18447,-0.499971 -2.96514,-1.341745 -0.91633,-0.978493 -1.32563,-2.16073 -1.32563,-3.77591 0,-2.910018 1.73608,-5.049301 4.09647,-5.049301 0.68293,0 0.97496,0.113934 2.16493,0.887346 l 0,-0.727839 2.47765,0 z m -2.47765,2.570894 c -0.54612,-0.524097 -1.05315,-0.773412 -1.59927,-0.773412 -1.20951,0 -2.12699,1.387317 -2.12699,3.206245 0,1.774689 0.91748,3.070859 2.14654,3.070859 0.46793,0 0.89678,-0.13672 1.57972,-0.522757 l 0,-4.980935"
       style="fill:#231f20;fill-opacity:1;fill-rule:evenodd;stroke:none"
       id="path4279"
       inkscape:connector-curvature="0" /><path
       d="m 125.34688,34.764777 0,-9.84794 2.47765,0 0,6.778416 c 0.78066,0.886007 1.2486,1.205023 1.79472,1.205023 0.48748,0 0.89793,-0.296228 1.11178,-0.818986 0.17591,-0.408823 0.17591,-0.454397 0.17591,-1.591059 l 0,-5.573394 2.47766,0 0,6.778416 c 0.70248,0.908795 1.13132,1.205023 1.79471,1.205023 0.42885,0 0.76112,-0.227868 1.01406,-0.682265 0.19545,-0.386037 0.27363,-0.864561 0.27363,-1.818923 l 0,-5.482251 2.47766,0 0,6.118938 c 0,2.410046 -1.13133,3.888511 -2.96514,3.888511 -1.26814,0 -2.04881,-0.568332 -2.92719,-2.09237 -0.46794,1.387317 -1.32564,2.09237 -2.53515,2.09237 -0.97611,0 -1.85335,-0.545545 -2.69265,-1.65942 l 0,1.499911 -2.47765,0"
       style="fill:#231f20;fill-opacity:1;fill-rule:evenodd;stroke:none"
       id="path4281"
       inkscape:connector-curvature="0" /><path
       d="m 145.40266,34.924286 c -0.93703,0 -1.697,-0.182295 -2.34084,-0.568332 -1.38542,-0.841773 -2.24426,-2.569553 -2.24426,-4.503751 0,-1.455677 0.46909,-2.797422 1.30723,-3.729002 0.8393,-0.932921 1.8729,-1.365871 3.27787,-1.365871 1.42335,0 2.45811,0.43295 3.29625,1.365871 0.8393,0.93158 1.30724,2.273325 1.30724,3.729002 0,1.683543 -0.64384,3.207581 -1.75563,4.139162 -0.74157,0.615245 -1.67744,0.932921 -2.84786,0.932921 z m -0.0196,-2.09237 c 1.2486,0 1.97063,-1.091089 1.97063,-3.0025 0,-1.887287 -0.70248,-2.978375 -1.89245,-2.978375 -1.20951,0 -1.99017,1.182235 -1.99017,3.001162 0,1.84305 0.72203,2.979713 1.91199,2.979713"
       style="fill:#231f20;fill-opacity:1;fill-rule:evenodd;stroke:none"
       id="path4283"
       inkscape:connector-curvature="0" /><path
       d="m 151.90319,34.764777 0,-9.84794 2.47766,0 0,4.072146 c 0,0.499971 0.15521,1.29617 0.35066,1.773349 0.31273,0.750626 0.91633,1.29617 1.4636,1.29617 0.37021,0 0.79906,-0.205082 1.42336,-0.659478 l 0.89793,2.865784 c -0.70248,0.499969 -1.13132,0.659478 -1.71653,0.659478 -0.54612,0 -0.93703,-0.227869 -1.38542,-0.841774 -0.29318,-0.408824 -0.70248,-1.045514 -1.0336,-1.636633 l 0,2.318898 -2.47766,0"
       style="fill:#231f20;fill-opacity:1;fill-rule:evenodd;stroke:none"
       id="path4285"
       inkscape:connector-curvature="0" /><path
       d="m 167.38997,34.764777 -3.97919,0 c -0.56567,0 -1.2486,-0.09115 -1.59927,-0.180953 -1.48314,-0.455738 -2.43856,-1.797482 -2.43856,-3.412669 0,-1.545479 0.70133,-2.637908 2.12584,-3.251813 -0.99451,-0.29623 -1.54063,-0.887347 -1.54063,-1.660761 0,-0.545543 0.21385,-0.908792 0.75997,-1.341744 -1.2486,-0.477184 -1.81427,-1.205022 -1.81427,-2.341684 0,-1.729122 1.58087,-2.911357 3.90216,-2.911357 1.17042,0 2.14539,0.249314 2.9065,0.727839 0.85885,0.545543 1.42451,1.591058 1.42451,2.592341 0,1.615185 -1.09224,2.637914 -3.16059,2.979717 -1.11178,0.159508 -0.97611,0.136721 -1.22905,0.203741 -0.31158,0.09115 -0.50703,0.296229 -0.50703,0.569672 0,0.340462 0.27248,0.545544 0.87724,0.659478 1.11178,0.203742 1.58087,0.363249 2.10744,0.705052 0.97497,0.636693 1.482,1.5924 1.482,2.751845 0,0.682265 -0.11613,1.091087 -0.52658,1.932861 l 1.20951,0 0,1.978435 z m -4.3494,-1.887289 c 0.75996,0 1.34517,-0.773412 1.34517,-1.750566 0,-1.024063 -0.54611,-1.729116 -1.34517,-1.729116 -0.78067,0 -1.32678,0.72784 -1.32678,1.750562 0,1.001283 0.54611,1.72912 1.32678,1.72912 z m 0.0379,-9.211247 c 1.17157,0 1.81426,-0.36325 1.81426,-1.046856 0,-0.659477 -0.72087,-1.068301 -1.89244,-1.068301 -1.20836,0 -1.94993,0.408824 -1.94993,1.113876 0,0.659478 0.70248,1.001281 2.02811,1.001281"
       style="fill:#231f20;fill-opacity:1;fill-rule:evenodd;stroke:none"
       id="path4287"
       inkscape:connector-curvature="0" /><path
       d="m 176.4222,29.397806 0,0.341803 c 0,1.136657 -0.23339,2.250533 -0.64384,3.115094 -0.6427,1.341743 -1.83381,2.069583 -3.39399,2.069583 -2.34084,0 -4.05737,-2.069583 -4.05737,-4.889787 0,-3.115098 1.85335,-5.277169 4.50576,-5.277169 1.26815,0 2.63402,0.546884 3.41468,1.388658 l 0,1.818927 c -0.80021,-0.750626 -1.93153,-1.227809 -2.84901,-1.227809 -1.50154,0 -2.55584,1.113875 -2.53629,2.6607 l 5.56006,0 z m -5.53937,1.524035 c 0.17476,1.387317 0.74042,2.092369 1.67745,2.092369 0.83815,0 1.54063,-0.887347 1.6579,-2.092369 l -3.33535,0"
       style="fill:#231f20;fill-opacity:1;fill-rule:evenodd;stroke:none"
       id="path4289"
       inkscape:connector-curvature="0" /><path
       d="m 178.23991,34.764777 0,-9.84794 2.47651,0 0,6.778416 c 0.78066,0.886007 1.2486,1.205023 1.79587,1.205023 0.48748,0 0.89678,-0.296228 1.11178,-0.818986 0.17476,-0.408823 0.17476,-0.454397 0.17476,-1.591059 l 0,-5.573394 2.47765,0 0,6.436613 c 0,0.613905 -0.1943,1.432892 -0.46794,1.978436 -0.50702,1.024068 -1.36587,1.5924 -2.39947,1.5924 -0.97611,0 -1.85335,-0.545545 -2.69265,-1.65942 l 0,1.499911 -2.47651,0"
       style="fill:#231f20;fill-opacity:1;fill-rule:evenodd;stroke:none"
       id="path4291"
       inkscape:connector-curvature="0" /><g
       id="g4293"
       transform="matrix(1.1497236,0,0,1.3404036,4.8109972,17.946739)"><g
         id="g4295"
         clip-path="url(#clipPath4297)"><g
           id="g4301"
           clip-path="url(#clipPath4303)"><path
             d="m 386.537,90.21 c 0,103.956 -84.371,188.327 -188.327,188.327 C 94.254,278.537 9.883,194.166 9.883,90.21 c 0,-103.956 84.371,-188.327 188.327,-188.327 103.956,0 188.327,84.371 188.327,188.327 m -2.966,-0.01 0,0 c 0,-102.319 -83.042,-185.361 -185.361,-185.361 -102.319,0 -185.361,83.042 -185.361,185.361 0,102.319 83.042,185.361 185.361,185.361 102.319,0 185.361,-83.042 185.361,-185.361"
             style="fill:#a7a9ac;fill-opacity:1;fill-rule:nonzero;stroke:none"
             id="path4307"
             inkscape:connector-curvature="0" /><path
             d="m 383.571,90.21 c 0,102.319 -83.042,185.361 -185.361,185.361 -102.319,0 -185.361,-83.042 -185.361,-185.361 0,-102.319 83.042,-185.361 185.361,-185.361 102.319,0 185.361,83.042 185.361,185.361 m -2.966,-0.01 0,0 c 0,-100.682 -81.713,-182.395 -182.395,-182.395 -100.682,0 -182.395,81.713 -182.395,182.395 0,100.682 81.713,182.395 182.395,182.395 100.682,0 182.395,-81.713 182.395,-182.395"
             style="fill:#a8aaad;fill-opacity:1;fill-rule:nonzero;stroke:none"
             id="path4309"
             inkscape:connector-curvature="0" /><path
             d="m 380.605,90.18 c 0,100.682 -81.713,182.395 -182.395,182.395 -100.682,0 -182.395,-81.713 -182.395,-182.395 0,-100.682 81.713,-182.395 182.395,-182.395 100.682,0 182.395,81.713 182.395,182.395 m -2.966,0.02 10e-4,0 c 0,-99.045 -80.385,-179.43 -179.43,-179.43 -99.045,0 -179.43,80.385 -179.43,179.43 0,99.045 80.385,179.429 179.43,179.429 99.045,0 179.43,-80.384 179.43,-179.429"
             style="fill:#a9abad;fill-opacity:1;fill-rule:nonzero;stroke:none"
             id="path4311"
             inkscape:connector-curvature="0" /><path
             d="m 377.64,90.21 c 0,99.045 -80.385,179.43 -179.43,179.43 -99.045,0 -179.43,-80.385 -179.43,-179.43 0,-99.045 80.385,-179.43 179.43,-179.43 99.045,0 179.43,80.385 179.43,179.43 m -2.966,-0.01 0,0 c 0,-97.408 -79.056,-176.464 -176.464,-176.464 -97.408,0 -176.464,79.056 -176.464,176.464 0,97.408 79.056,176.464 176.464,176.464 97.408,0 176.464,-79.056 176.464,-176.464"
             style="fill:#a9acae;fill-opacity:1;fill-rule:nonzero;stroke:none"
             id="path4313"
             inkscape:connector-curvature="0" /><path
             d="m 374.674,90.18 c 0,97.408 -79.056,176.464 -176.464,176.464 -97.408,0 -176.464,-79.056 -176.464,-176.464 0,-97.408 79.056,-176.464 176.464,-176.464 97.408,0 176.464,79.056 176.464,176.464 m -2.966,0.02 0,0 c 0,-95.771 -77.727,-173.498 -173.498,-173.498 -95.771,0 -173.498,77.727 -173.498,173.498 0,95.771 77.727,173.498 173.498,173.498 95.771,0 173.498,-77.727 173.498,-173.498"
             style="fill:#aaacaf;fill-opacity:1;fill-rule:nonzero;stroke:none"
             id="path4315"
             inkscape:connector-curvature="0" /><path
             d="m 371.708,90.21 c 0,95.771 -77.727,173.498 -173.498,173.498 -95.771,0 -173.498,-77.727 -173.498,-173.498 0,-95.771 77.727,-173.498 173.498,-173.498 95.771,0 173.498,77.727 173.498,173.498 m -2.966,-0.01 0,0 c 0,-94.134 -76.398,-170.532 -170.532,-170.532 -94.134,0 -170.532,76.398 -170.532,170.532 0,94.134 76.398,170.532 170.532,170.532 94.134,0 170.532,-76.398 170.532,-170.532"
             style="fill:#abadb0;fill-opacity:1;fill-rule:nonzero;stroke:none"
             id="path4317"
             inkscape:connector-curvature="0" /><path
             d="m 368.742,90.21 c 0,94.134 -76.398,170.532 -170.532,170.532 -94.134,0 -170.532,-76.398 -170.532,-170.532 0,-94.134 76.398,-170.532 170.532,-170.532 94.134,0 170.532,76.398 170.532,170.532 m -2.966,-0.01 0,0 c 0,-92.497 -75.069,-167.567 -167.566,-167.567 -92.497,0 -167.566,75.07 -167.566,167.567 0,92.497 75.069,167.566 167.566,167.566 92.497,0 167.566,-75.069 167.566,-167.566"
             style="fill:#acaeb0;fill-opacity:1;fill-rule:nonzero;stroke:none"
             id="path4319"
             inkscape:connector-curvature="0" /><path
             d="m 365.776,90.21 c 0,92.497 -75.069,167.566 -167.566,167.566 -92.497,0 -167.566,-75.069 -167.566,-167.566 0,-92.497 75.069,-167.566 167.566,-167.566 92.497,0 167.566,75.069 167.566,167.566 m -2.965,-0.01 0,0 c 0,-90.86 -73.741,-164.601 -164.601,-164.601 -90.86,0 -164.601,73.741 -164.601,164.601 0,90.859 73.741,164.601 164.601,164.601 90.86,0 164.601,-73.742 164.601,-164.601"
             style="fill:#adafb1;fill-opacity:1;fill-rule:nonzero;stroke:none"
             id="path4321"
             inkscape:connector-curvature="0" /><path
             d="m 362.811,90.21 c 0,90.86 -73.741,164.601 -164.601,164.601 -90.86,0 -164.601,-73.741 -164.601,-164.601 0,-90.86 73.741,-164.601 164.601,-164.601 90.86,0 164.601,73.741 164.601,164.601 m -2.966,-0.01 0,0 c 0,-89.223 -72.413,-161.635 -161.635,-161.635 -89.222,0 -161.635,72.412 -161.635,161.635 0,89.222 72.413,161.635 161.635,161.635 89.222,0 161.635,-72.413 161.635,-161.635"
             style="fill:#adb0b2;fill-opacity:1;fill-rule:nonzero;stroke:none"
             id="path4323"
             inkscape:connector-curvature="0" /><path
             d="m 359.845,90.18 c 0,89.222 -72.413,161.635 -161.635,161.635 -89.222,0 -161.635,-72.413 -161.635,-161.635 0,-89.222 72.413,-161.635 161.635,-161.635 89.222,0 161.635,72.413 161.635,161.635 m -2.966,0.02 0,0 c 0,-87.585 -71.084,-158.669 -158.669,-158.669 -87.585,0 -158.669,71.084 -158.669,158.669 0,87.585 71.084,158.669 158.669,158.669 87.585,0 158.669,-71.084 158.669,-158.669"
             style="fill:#aeb0b3;fill-opacity:1;fill-rule:nonzero;stroke:none"
             id="path4325"
             inkscape:connector-curvature="0" /><path
             d="m 356.879,90.21 c 0,87.585 -71.084,158.669 -158.669,158.669 -87.585,0 -158.669,-71.084 -158.669,-158.669 0,-87.585 71.084,-158.669 158.669,-158.669 87.585,0 158.669,71.084 158.669,158.669 m -2.966,-0.01 0,0 c 0,-85.948 -69.755,-155.703 -155.703,-155.703 -85.948,0 -155.703,69.755 -155.703,155.703 0,85.948 69.755,155.703 155.703,155.703 85.948,0 155.703,-69.755 155.703,-155.703"
             style="fill:#afb1b4;fill-opacity:1;fill-rule:nonzero;stroke:none"
             id="path4327"
             inkscape:connector-curvature="0" /><path
             d="m 353.913,90.18 c 0,85.948 -69.755,155.703 -155.703,155.703 -85.948,0 -155.703,-69.755 -155.703,-155.703 0,-85.948 69.755,-155.703 155.703,-155.703 85.948,0 155.703,69.755 155.703,155.703 m -2.965,0.02 0,0 c 0,-84.311 -68.427,-152.738 -152.738,-152.738 -84.311,0 -152.738,68.427 -152.738,152.738 0,84.311 68.427,152.737 152.738,152.737 84.311,0 152.738,-68.426 152.738,-152.737"
             style="fill:#b0b2b4;fill-opacity:1;fill-rule:nonzero;stroke:none"
             id="path4329"
             inkscape:connector-curvature="0" /><path
             d="m 350.948,90.21 c 0,84.311 -68.427,152.738 -152.738,152.738 -84.311,0 -152.738,-68.427 -152.738,-152.738 0,-84.311 68.427,-152.738 152.738,-152.738 84.311,0 152.738,68.427 152.738,152.738 m -2.966,-0.01 0,0 c 0,-82.674 -67.098,-149.772 -149.772,-149.772 -82.674,0 -149.772,67.098 -149.772,149.772 0,82.674 67.098,149.772 149.772,149.772 82.674,0 149.772,-67.098 149.772,-149.772"
             style="fill:#b1b3b5;fill-opacity:1;fill-rule:nonzero;stroke:none"
             id="path4331"
             inkscape:connector-curvature="0" /><path
             d="m 347.982,90.21 c 0,82.674 -67.098,149.772 -149.772,149.772 -82.674,0 -149.772,-67.098 -149.772,-149.772 0,-82.674 67.098,-149.772 149.772,-149.772 82.674,0 149.772,67.098 149.772,149.772 m -2.966,-0.01 0,0 c 0,-81.037 -65.769,-146.806 -146.806,-146.806 -81.037,0 -146.806,65.769 -146.806,146.806 0,81.037 65.769,146.806 146.806,146.806 81.037,0 146.806,-65.769 146.806,-146.806"
             style="fill:#b2b4b6;fill-opacity:1;fill-rule:nonzero;stroke:none"
             id="path4333"
             inkscape:connector-curvature="0" /><path
             d="m 345.016,90.21 c 0,81.037 -65.769,146.806 -146.806,146.806 -81.037,0 -146.806,-65.769 -146.806,-146.806 0,-81.037 65.769,-146.806 146.806,-146.806 81.037,0 146.806,65.769 146.806,146.806 m -2.966,-0.01 0,0 c 0,-79.4 -64.44,-143.84 -143.84,-143.84 -79.4,0 -143.84,64.44 -143.84,143.84 0,79.4 64.44,143.84 143.84,143.84 79.4,0 143.84,-64.44 143.84,-143.84"
             style="fill:#b2b4b7;fill-opacity:1;fill-rule:nonzero;stroke:none"
             id="path4335"
             inkscape:connector-curvature="0" /><path
             d="m 342.05,90.21 c 0,79.4 -64.44,143.84 -143.84,143.84 -79.4,0 -143.84,-64.44 -143.84,-143.84 0,-79.4 64.44,-143.84 143.84,-143.84 79.4,0 143.84,64.44 143.84,143.84 m -2.965,-0.01 -10e-4,0 c 0,-77.763 -63.111,-140.875 -140.874,-140.875 -77.763,0 -140.874,63.112 -140.874,140.875 0,77.763 63.111,140.874 140.874,140.874 77.763,0 140.874,-63.111 140.874,-140.874"
             style="fill:#b3b5b8;fill-opacity:1;fill-rule:nonzero;stroke:none"
             id="path4337"
             inkscape:connector-curvature="0" /><path
             d="m 339.084,90.18 c 0,77.763 -63.111,140.874 -140.874,140.874 -77.763,0 -140.874,-63.111 -140.874,-140.874 0,-77.763 63.111,-140.874 140.874,-140.874 77.763,0 140.874,63.111 140.874,140.874 m -2.965,0.02 0,0 c 0,-76.126 -61.783,-137.909 -137.909,-137.909 -76.126,0 -137.909,61.783 -137.909,137.909 0,76.126 61.783,137.909 137.909,137.909 76.126,0 137.909,-61.783 137.909,-137.909"
             style="fill:#b4b6b8;fill-opacity:1;fill-rule:nonzero;stroke:none"
             id="path4339"
             inkscape:connector-curvature="0" /><path
             d="m 336.119,90.21 c 0,76.126 -61.783,137.909 -137.909,137.909 -76.126,0 -137.909,-61.783 -137.909,-137.909 0,-76.126 61.783,-137.909 137.909,-137.909 76.126,0 137.909,61.783 137.909,137.909 m -2.966,-0.01 0,0 c 0,-74.489 -60.455,-134.943 -134.943,-134.943 -74.488,0 -134.943,60.454 -134.943,134.943 0,74.488 60.455,134.943 134.943,134.943 74.488,0 134.943,-60.455 134.943,-134.943"
             style="fill:#b5b7b9;fill-opacity:1;fill-rule:nonzero;stroke:none"
             id="path4341"
             inkscape:connector-curvature="0" /><path
             d="m 333.153,90.18 c 0,74.488 -60.455,134.943 -134.943,134.943 -74.488,0 -134.943,-60.455 -134.943,-134.943 0,-74.488 60.455,-134.943 134.943,-134.943 74.488,0 134.943,60.455 134.943,134.943 m -2.966,0.02 0,0 c 0,-72.851 -59.126,-131.977 -131.977,-131.977 -72.851,0 -131.977,59.126 -131.977,131.977 0,72.851 59.126,131.977 131.977,131.977 72.851,0 131.977,-59.126 131.977,-131.977"
             style="fill:#b6b8ba;fill-opacity:1;fill-rule:nonzero;stroke:none"
             id="path4343"
             inkscape:connector-curvature="0" /><path
             d="m 330.187,90.21 c 0,72.851 -59.126,131.977 -131.977,131.977 -72.851,0 -131.977,-59.126 -131.977,-131.977 0,-72.851 59.126,-131.977 131.977,-131.977 72.851,0 131.977,59.126 131.977,131.977 m -2.966,-0.01 0,0 c 0,-71.214 -57.797,-129.011 -129.011,-129.011 -71.214,0 -129.011,57.797 -129.011,129.011 0,71.214 57.797,129.011 129.011,129.011 71.214,0 129.011,-57.797 129.011,-129.011"
             style="fill:#b7b8bb;fill-opacity:1;fill-rule:nonzero;stroke:none"
             id="path4345"
             inkscape:connector-curvature="0" /><path
             d="m 327.221,90.21 c 0,71.214 -57.797,129.011 -129.011,129.011 -71.214,0 -129.011,-57.797 -129.011,-129.011 0,-71.214 57.797,-129.011 129.011,-129.011 71.214,0 129.011,57.797 129.011,129.011 m -2.965,-0.01 0,0 c 0,-69.577 -56.469,-126.046 -126.046,-126.046 -69.577,0 -126.046,56.469 -126.046,126.046 0,69.577 56.469,126.045 126.046,126.045 69.577,0 126.046,-56.468 126.046,-126.045"
             style="fill:#b7b9bc;fill-opacity:1;fill-rule:nonzero;stroke:none"
             id="path4347"
             inkscape:connector-curvature="0" /><path
             d="m 324.256,90.21 c 0,69.577 -56.469,126.046 -126.046,126.046 -69.577,0 -126.046,-56.469 -126.046,-126.046 0,-69.577 56.469,-126.046 126.046,-126.046 69.577,0 126.046,56.469 126.046,126.046 m -2.966,-0.01 0,0 c 0,-67.94 -55.14,-123.08 -123.08,-123.08 -67.94,0 -123.08,55.14 -123.08,123.08 0,67.94 55.14,123.08 123.08,123.08 67.94,0 123.08,-55.14 123.08,-123.08"
             style="fill:#b8babc;fill-opacity:1;fill-rule:nonzero;stroke:none"
             id="path4349"
             inkscape:connector-curvature="0" /><path
             d="m 321.29,90.21 c 0,67.94 -55.14,123.08 -123.08,123.08 -67.94,0 -123.08,-55.14 -123.08,-123.08 0,-67.94 55.14,-123.08 123.08,-123.08 67.94,0 123.08,55.14 123.08,123.08 m -2.966,-0.01 0,0 c 0,-66.303 -53.811,-120.114 -120.114,-120.114 -66.303,0 -120.114,53.811 -120.114,120.114 0,66.303 53.811,120.114 120.114,120.114 66.303,0 120.114,-53.811 120.114,-120.114"
             style="fill:#b9bbbd;fill-opacity:1;fill-rule:nonzero;stroke:none"
             id="path4351"
             inkscape:connector-curvature="0" /><path
             d="m 318.324,90.18 c 0,66.303 -53.811,120.114 -120.114,120.114 -66.303,0 -120.114,-53.811 -120.114,-120.114 0,-66.303 53.811,-120.114 120.114,-120.114 66.303,0 120.114,53.811 120.114,120.114 m -2.966,0.02 0,0 c 0,-64.666 -52.482,-117.148 -117.148,-117.148 -64.666,0 -117.148,52.482 -117.148,117.148 0,64.666 52.482,117.148 117.148,117.148 64.666,0 117.148,-52.482 117.148,-117.148"
             style="fill:#babcbe;fill-opacity:1;fill-rule:nonzero;stroke:none"
             id="path4353"
             inkscape:connector-curvature="0" /><path
             d="m 315.358,90.21 c 0,64.666 -52.482,117.148 -117.148,117.148 -64.666,0 -117.148,-52.482 -117.148,-117.148 0,-64.666 52.482,-117.148 117.148,-117.148 64.666,0 117.148,52.482 117.148,117.148 m -2.966,-0.01 0,0 c 0,-63.029 -51.153,-114.183 -114.182,-114.183 -63.029,0 -114.182,51.154 -114.182,114.183 0,63.029 51.153,114.182 114.182,114.182 63.029,0 114.182,-51.153 114.182,-114.182"
             style="fill:#bbbdbf;fill-opacity:1;fill-rule:nonzero;stroke:none"
             id="path4355"
             inkscape:connector-curvature="0" /><path
             d="m 312.392,90.18 c 0,63.029 -51.153,114.182 -114.182,114.182 -63.029,0 -114.182,-51.153 -114.182,-114.182 0,-63.029 51.153,-114.182 114.182,-114.182 63.029,0 114.182,51.153 114.182,114.182 m -2.965,0.02 0,0 c 0,-61.392 -49.825,-111.217 -111.217,-111.217 -61.392,0 -111.217,49.825 -111.217,111.217 0,61.392 49.825,111.217 111.217,111.217 61.392,0 111.217,-49.825 111.217,-111.217"
             style="fill:#bbbdc0;fill-opacity:1;fill-rule:nonzero;stroke:none"
             id="path4357"
             inkscape:connector-curvature="0" /><path
             d="m 309.427,90.21 c 0,61.392 -49.825,111.217 -111.217,111.217 -61.392,0 -111.217,-49.825 -111.217,-111.217 0,-61.392 49.825,-111.217 111.217,-111.217 61.392,0 111.217,49.825 111.217,111.217 m -2.966,-0.01 0,0 c 0,-59.755 -48.497,-108.251 -108.251,-108.251 -59.754,0 -108.251,48.496 -108.251,108.251 0,59.754 48.497,108.251 108.251,108.251 59.754,0 108.251,-48.497 108.251,-108.251"
             style="fill:#bcbec0;fill-opacity:1;fill-rule:nonzero;stroke:none"
             id="path4359"
             inkscape:connector-curvature="0" /><path
             d="m 306.461,90.21 c 0,59.754 -48.497,108.251 -108.251,108.251 -59.754,0 -108.251,-48.497 -108.251,-108.251 0,-59.754 48.497,-108.251 108.251,-108.251 59.754,0 108.251,48.497 108.251,108.251 m -2.966,-0.01 0,0 c 0,-58.117 -47.168,-105.285 -105.285,-105.285 -58.117,0 -105.285,47.168 -105.285,105.285 0,58.117 47.168,105.285 105.285,105.285 58.117,0 105.285,-47.168 105.285,-105.285"
             style="fill:#bdbfc1;fill-opacity:1;fill-rule:nonzero;stroke:none"
             id="path4361"
             inkscape:connector-curvature="0" /><path
             d="m 303.495,90.21 c 0,58.117 -47.168,105.285 -105.285,105.285 -58.117,0 -105.285,-47.168 -105.285,-105.285 0,-58.117 47.168,-105.285 105.285,-105.285 58.117,0 105.285,47.168 105.285,105.285 m -2.966,-0.01 0,0 c 0,-56.48 -45.839,-102.319 -102.319,-102.319 -56.48,0 -102.319,45.839 -102.319,102.319 0,56.48 45.839,102.319 102.319,102.319 56.48,0 102.319,-45.839 102.319,-102.319"
             style="fill:#bec0c2;fill-opacity:1;fill-rule:nonzero;stroke:none"
             id="path4363"
             inkscape:connector-curvature="0" /><path
             d="m 300.529,90.21 c 0,56.48 -45.839,102.319 -102.319,102.319 -56.48,0 -102.319,-45.839 -102.319,-102.319 0,-56.48 45.839,-102.319 102.319,-102.319 56.48,0 102.319,45.839 102.319,102.319 m -2.965,-0.01 0,0 c 0,-54.843 -44.511,-99.354 -99.354,-99.354 -54.843,0 -99.354,44.511 -99.354,99.354 0,54.843 44.511,99.353 99.354,99.353 54.843,0 99.354,-44.51 99.354,-99.353"
             style="fill:#bfc1c3;fill-opacity:1;fill-rule:nonzero;stroke:none"
             id="path4365"
             inkscape:connector-curvature="0" /><path
             d="m 297.564,90.18 c 0,54.843 -44.511,99.354 -99.354,99.354 -54.843,0 -99.354,-44.511 -99.354,-99.354 0,-54.843 44.511,-99.354 99.354,-99.354 54.843,0 99.354,44.511 99.354,99.354 m -2.966,0.02 0,0 c 0,-53.206 -43.182,-96.388 -96.388,-96.388 -53.206,0 -96.388,43.182 -96.388,96.388 0,53.206 43.182,96.388 96.388,96.388 53.206,0 96.388,-43.182 96.388,-96.388"
             style="fill:#c0c1c4;fill-opacity:1;fill-rule:nonzero;stroke:none"
             id="path4367"
             inkscape:connector-curvature="0" /><path
             d="m 294.598,90.21 c 0,53.206 -43.182,96.388 -96.388,96.388 -53.206,0 -96.388,-43.182 -96.388,-96.388 0,-53.206 43.182,-96.388 96.388,-96.388 53.206,0 96.388,43.182 96.388,96.388 m -2.966,-0.01 0,0 c 0,-51.569 -41.853,-93.422 -93.422,-93.422 -51.569,0 -93.422,41.853 -93.422,93.422 0,51.569 41.853,93.422 93.422,93.422 51.569,0 93.422,-41.853 93.422,-93.422"
             style="fill:#c0c2c4;fill-opacity:1;fill-rule:nonzero;stroke:none"
             id="path4369"
             inkscape:connector-curvature="0" /><path
             d="m 291.632,90.18 c 0,51.569 -41.853,93.422 -93.422,93.422 -51.569,0 -93.422,-41.853 -93.422,-93.422 0,-51.569 41.853,-93.422 93.422,-93.422 51.569,0 93.422,41.853 93.422,93.422 m -2.966,0.02 0,0 c 0,-49.932 -40.524,-90.456 -90.456,-90.456 -49.932,0 -90.456,40.524 -90.456,90.456 0,49.932 40.524,90.456 90.456,90.456 49.932,0 90.456,-40.524 90.456,-90.456"
             style="fill:#c1c3c5;fill-opacity:1;fill-rule:nonzero;stroke:none"
             id="path4371"
             inkscape:connector-curvature="0" /><path
             d="m 288.666,90.21 c 0,49.932 -40.524,90.456 -90.456,90.456 -49.932,0 -90.456,-40.524 -90.456,-90.456 0,-49.932 40.524,-90.456 90.456,-90.456 49.932,0 90.456,40.524 90.456,90.456 m -2.966,-0.01 0,0 c 0,-48.295 -39.195,-87.491 -87.49,-87.491 -48.295,0 -87.49,39.196 -87.49,87.491 0,48.295 39.195,87.49 87.49,87.49 48.295,0 87.49,-39.195 87.49,-87.49"
             style="fill:#c2c4c6;fill-opacity:1;fill-rule:nonzero;stroke:none"
             id="path4373"
             inkscape:connector-curvature="0" /><path
             d="m 285.7,90.21 c 0,48.295 -39.195,87.49 -87.49,87.49 -48.295,0 -87.49,-39.195 -87.49,-87.49 0,-48.295 39.195,-87.49 87.49,-87.49 48.295,0 87.49,39.195 87.49,87.49 m -2.965,-0.01 0,0 c 0,-46.658 -37.867,-84.525 -84.525,-84.525 -46.658,0 -84.525,37.867 -84.525,84.525 0,46.658 37.867,84.525 84.525,84.525 46.658,0 84.525,-37.867 84.525,-84.525"
             style="fill:#c3c5c7;fill-opacity:1;fill-rule:nonzero;stroke:none"
             id="path4375"
             inkscape:connector-curvature="0" /><path
             d="m 282.735,90.21 c 0,46.658 -37.867,84.525 -84.525,84.525 -46.658,0 -84.525,-37.867 -84.525,-84.525 0,-46.658 37.867,-84.525 84.525,-84.525 46.658,0 84.525,37.867 84.525,84.525 m -2.966,-0.01 0,0 c 0,-45.021 -36.539,-81.559 -81.559,-81.559 -45.02,0 -81.559,36.538 -81.559,81.559 0,45.02 36.539,81.559 81.559,81.559 45.02,0 81.559,-36.539 81.559,-81.559"
             style="fill:#c4c6c8;fill-opacity:1;fill-rule:nonzero;stroke:none"
             id="path4377"
             inkscape:connector-curvature="0" /><path
             d="m 279.769,90.21 c 0,45.021 -36.539,81.559 -81.559,81.559 -45.02,0 -81.559,-36.538 -81.559,-81.559 0,-45.02 36.539,-81.559 81.559,-81.559 45.02,0 81.559,36.539 81.559,81.559 m -2.966,-0.01 0,0 c 0,-43.383 -35.21,-78.593 -78.593,-78.593 -43.383,0 -78.593,35.21 -78.593,78.593 0,43.383 35.21,78.593 78.593,78.593 43.383,0 78.593,-35.21 78.593,-78.593"
             style="fill:#c5c6c8;fill-opacity:1;fill-rule:nonzero;stroke:none"
             id="path4379"
             inkscape:connector-curvature="0" /><path
             d="m 276.803,90.18 c 0,43.383 -35.21,78.593 -78.593,78.593 -43.383,0 -78.593,-35.21 -78.593,-78.593 0,-43.383 35.21,-78.593 78.593,-78.593 43.383,0 78.593,35.21 78.593,78.593 m -2.966,0.02 0,0 c 0,-41.746 -33.881,-75.627 -75.627,-75.627 -41.746,0 -75.627,33.881 -75.627,75.627 0,41.746 33.881,75.627 75.627,75.627 41.746,0 75.627,-33.881 75.627,-75.627"
             style="fill:#c5c7c9;fill-opacity:1;fill-rule:nonzero;stroke:none"
             id="path4381"
             inkscape:connector-curvature="0" /><path
             d="m 273.837,90.21 c 0,41.746 -33.881,75.627 -75.627,75.627 -41.746,0 -75.627,-33.881 -75.627,-75.627 0,-41.746 33.881,-75.627 75.627,-75.627 41.746,0 75.627,33.881 75.627,75.627 m -2.965,-0.01 0,0 c 0,-40.109 -32.553,-72.662 -72.662,-72.662 -40.109,0 -72.662,32.553 -72.662,72.662 0,40.109 32.553,72.661 72.662,72.661 40.109,0 72.662,-32.552 72.662,-72.661"
             style="fill:#c7c9cb;fill-opacity:1;fill-rule:nonzero;stroke:none"
             id="path4383"
             inkscape:connector-curvature="0" /><path
             d="m 270.872,90.18 c 0,40.109 -32.553,72.662 -72.662,72.662 -40.109,0 -72.662,-32.553 -72.662,-72.662 0,-40.109 32.553,-72.662 72.662,-72.662 40.109,0 72.662,32.553 72.662,72.662 m -2.966,0.02 0,0 c 0,-38.472 -31.224,-69.696 -69.696,-69.696 -38.472,0 -69.696,31.224 -69.696,69.696 0,38.472 31.224,69.696 69.696,69.696 38.472,0 69.696,-31.224 69.696,-69.696"
             style="fill:#c8cacc;fill-opacity:1;fill-rule:nonzero;stroke:none"
             id="path4385"
             inkscape:connector-curvature="0" /><path
             d="m 267.906,90.21 c 0,38.472 -31.224,69.696 -69.696,69.696 -38.472,0 -69.696,-31.224 -69.696,-69.696 0,-38.472 31.224,-69.696 69.696,-69.696 38.472,0 69.696,31.224 69.696,69.696 m -2.966,-0.01 0,0 c 0,-36.835 -29.895,-66.73 -66.73,-66.73 -36.835,0 -66.73,29.895 -66.73,66.73 0,36.835 29.895,66.73 66.73,66.73 36.835,0 66.73,-29.895 66.73,-66.73"
             style="fill:#c9cbcc;fill-opacity:1;fill-rule:nonzero;stroke:none"
             id="path4387"
             inkscape:connector-curvature="0" /><path
             d="m 264.94,90.18 c 0,36.835 -29.895,66.73 -66.73,66.73 -36.835,0 -66.73,-29.895 -66.73,-66.73 0,-36.835 29.895,-66.73 66.73,-66.73 36.835,0 66.73,29.895 66.73,66.73 m -2.966,0.02 0,0 c 0,-35.198 -28.566,-63.764 -63.764,-63.764 -35.198,0 -63.764,28.566 -63.764,63.764 0,35.198 28.566,63.764 63.764,63.764 35.198,0 63.764,-28.566 63.764,-63.764"
             style="fill:#cacbcd;fill-opacity:1;fill-rule:nonzero;stroke:none"
             id="path4389"
             inkscape:connector-curvature="0" /><path
             d="m 261.974,90.21 c 0,35.198 -28.566,63.764 -63.764,63.764 -35.198,0 -63.764,-28.566 -63.764,-63.764 0,-35.198 28.566,-63.764 63.764,-63.764 35.198,0 63.764,28.566 63.764,63.764 m -2.965,-0.01 -0.001,0 c 0,-33.561 -27.237,-60.799 -60.798,-60.799 -33.561,0 -60.798,27.238 -60.798,60.799 0,33.561 27.237,60.798 60.798,60.798 33.561,0 60.798,-27.237 60.798,-60.798"
             style="fill:#caccce;fill-opacity:1;fill-rule:nonzero;stroke:none"
             id="path4391"
             inkscape:connector-curvature="0" /><path
             d="m 259.008,90.21 c 0,33.561 -27.237,60.798 -60.798,60.798 -33.561,0 -60.798,-27.237 -60.798,-60.798 0,-33.561 27.237,-60.798 60.798,-60.798 33.561,0 60.798,27.237 60.798,60.798 m -2.965,-0.01 0,0 c 0,-31.924 -25.909,-57.833 -57.833,-57.833 -31.924,0 -57.833,25.909 -57.833,57.833 0,31.924 25.909,57.833 57.833,57.833 31.924,0 57.833,-25.909 57.833,-57.833"
             style="fill:#cbcdcf;fill-opacity:1;fill-rule:nonzero;stroke:none"
             id="path4393"
             inkscape:connector-curvature="0" /><path
             d="m 256.043,90.18 c 0,31.924 -25.909,57.833 -57.833,57.833 -31.924,0 -57.833,-25.909 -57.833,-57.833 0,-31.924 25.909,-57.833 57.833,-57.833 31.924,0 57.833,25.909 57.833,57.833 m -2.966,0.02 0,0 c 0,-30.287 -24.58,-54.867 -54.867,-54.867 -30.287,0 -54.867,24.58 -54.867,54.867 0,30.286 24.58,54.867 54.867,54.867 30.287,0 54.867,-24.581 54.867,-54.867"
             style="fill:#ccced0;fill-opacity:1;fill-rule:nonzero;stroke:none"
             id="path4395"
             inkscape:connector-curvature="0" /><path
             d="m 253.077,90.21 c 0,30.287 -24.58,54.867 -54.867,54.867 -30.287,0 -54.867,-24.58 -54.867,-54.867 0,-30.287 24.58,-54.867 54.867,-54.867 30.287,0 54.867,24.58 54.867,54.867 m -2.966,-0.01 0,0 c 0,-28.649 -23.252,-51.901 -51.901,-51.901 -28.649,0 -51.901,23.252 -51.901,51.901 0,28.649 23.252,51.901 51.901,51.901 28.649,0 51.901,-23.252 51.901,-51.901"
             style="fill:#cdcfd0;fill-opacity:1;fill-rule:nonzero;stroke:none"
             id="path4397"
             inkscape:connector-curvature="0" /><path
             d="m 250.111,90.18 c 0,28.649 -23.252,51.901 -51.901,51.901 -28.649,0 -51.901,-23.252 -51.901,-51.901 0,-28.649 23.252,-51.901 51.901,-51.901 28.649,0 51.901,23.252 51.901,51.901 m -2.966,0.02 0,0 c 0,-27.012 -21.923,-48.935 -48.935,-48.935 -27.012,0 -48.935,21.923 -48.935,48.935 0,27.012 21.923,48.935 48.935,48.935 27.012,0 48.935,-21.923 48.935,-48.935"
             style="fill:#cecfd1;fill-opacity:1;fill-rule:nonzero;stroke:none"
             id="path4399"
             inkscape:connector-curvature="0" /><path
             d="m 247.145,90.21 c 0,27.012 -21.923,48.935 -48.935,48.935 -27.012,0 -48.935,-21.923 -48.935,-48.935 0,-27.012 21.923,-48.935 48.935,-48.935 27.012,0 48.935,21.923 48.935,48.935 m -2.965,-0.01 0,0 c 0,-25.375 -20.595,-45.97 -45.97,-45.97 -25.375,0 -45.97,20.595 -45.97,45.97 0,25.375 20.595,45.969 45.97,45.969 25.375,0 45.97,-20.594 45.97,-45.969"
             style="fill:#cfd0d2;fill-opacity:1;fill-rule:nonzero;stroke:none"
             id="path4401"
             inkscape:connector-curvature="0" /><path
             d="m 244.18,90.18 c 0,25.375 -20.595,45.97 -45.97,45.97 -25.375,0 -45.97,-20.595 -45.97,-45.97 0,-25.375 20.595,-45.97 45.97,-45.97 25.375,0 45.97,20.595 45.97,45.97 m -2.966,0.02 0,0 c 0,-23.738 -19.266,-43.004 -43.004,-43.004 -23.738,0 -43.004,19.266 -43.004,43.004 0,23.738 19.266,43.004 43.004,43.004 23.738,0 43.004,-19.266 43.004,-43.004"
             style="fill:#cfd0d2;fill-opacity:1;fill-rule:nonzero;stroke:none"
             id="path4403"
             inkscape:connector-curvature="0" /><path
             d="m 241.214,90.21 c 0,23.738 -19.266,43.004 -43.004,43.004 -23.738,0 -43.004,-19.266 -43.004,-43.004 0,-23.738 19.266,-43.004 43.004,-43.004 23.738,0 43.004,19.266 43.004,43.004 m -2.966,-0.01 0,0 c 0,-22.101 -17.937,-40.038 -40.038,-40.038 -22.101,0 -40.038,17.937 -40.038,40.038 0,22.101 17.937,40.038 40.038,40.038 22.101,0 40.038,-17.937 40.038,-40.038"
             style="fill:#d0d1d3;fill-opacity:1;fill-rule:nonzero;stroke:none"
             id="path4405"
             inkscape:connector-curvature="0" /><path
             d="m 238.248,90.21 c 0,22.101 -17.937,40.038 -40.038,40.038 -22.101,0 -40.038,-17.937 -40.038,-40.038 0,-22.101 17.937,-40.038 40.038,-40.038 22.101,0 40.038,17.937 40.038,40.038 m -2.966,-0.01 0,0 c 0,-20.464 -16.608,-37.072 -37.072,-37.072 -20.464,0 -37.072,16.608 -37.072,37.072 0,20.464 16.608,37.072 37.072,37.072 20.464,0 37.072,-16.608 37.072,-37.072"
             style="fill:#d0d2d3;fill-opacity:1;fill-rule:nonzero;stroke:none"
             id="path4407"
             inkscape:connector-curvature="0" /><path
             d="m 235.282,90.18 c 0,20.464 -16.608,37.072 -37.072,37.072 -20.464,0 -37.072,-16.608 -37.072,-37.072 0,-20.464 16.608,-37.072 37.072,-37.072 20.464,0 37.072,16.608 37.072,37.072 m -2.966,0.02 0,0 c 0,-18.827 -15.279,-34.107 -34.106,-34.107 -18.827,0 -34.106,15.28 -34.106,34.107 0,18.827 15.279,34.106 34.106,34.106 18.827,0 34.106,-15.279 34.106,-34.106"
             style="fill:#d2d3d5;fill-opacity:1;fill-rule:nonzero;stroke:none"
             id="path4409"
             inkscape:connector-curvature="0" /><path
             d="m 232.316,90.21 c 0,18.827 -15.279,34.106 -34.106,34.106 -18.827,0 -34.106,-15.279 -34.106,-34.106 0,-18.827 15.279,-34.106 34.106,-34.106 18.827,0 34.106,15.279 34.106,34.106 m -2.965,-0.01 0,0 c 0,-17.19 -13.951,-31.141 -31.141,-31.141 -17.19,0 -31.141,13.951 -31.141,31.141 0,17.19 13.951,31.141 31.141,31.141 17.19,0 31.141,-13.951 31.141,-31.141"
             style="fill:#d3d4d6;fill-opacity:1;fill-rule:nonzero;stroke:none"
             id="path4411"
             inkscape:connector-curvature="0" /><path
             d="m 229.351,90.18 c 0,17.19 -13.951,31.141 -31.141,31.141 -17.19,0 -31.141,-13.951 -31.141,-31.141 0,-17.19 13.951,-31.141 31.141,-31.141 17.19,0 31.141,13.951 31.141,31.141 m -2.966,0.02 0,0 c 0,-15.553 -12.622,-28.175 -28.175,-28.175 -15.553,0 -28.175,12.622 -28.175,28.175 0,15.552 12.622,28.175 28.175,28.175 15.553,0 28.175,-12.623 28.175,-28.175"
             style="fill:#d4d5d7;fill-opacity:1;fill-rule:nonzero;stroke:none"
             id="path4413"
             inkscape:connector-curvature="0" /><path
             d="m 226.385,90.21 c 0,15.553 -12.622,28.175 -28.175,28.175 -15.553,0 -28.175,-12.622 -28.175,-28.175 0,-15.553 12.622,-28.175 28.175,-28.175 15.553,0 28.175,12.622 28.175,28.175 m -2.966,-0.01 0,0 c 0,-13.915 -11.294,-25.209 -25.209,-25.209 -13.915,0 -25.209,11.294 -25.209,25.209 0,13.915 11.294,25.209 25.209,25.209 13.915,0 25.209,-11.294 25.209,-25.209"
             style="fill:#d4d6d7;fill-opacity:1;fill-rule:nonzero;stroke:none"
             id="path4415"
             inkscape:connector-curvature="0" /><path
             d="m 223.419,90.18 c 0,13.915 -11.294,25.209 -25.209,25.209 -13.915,0 -25.209,-11.294 -25.209,-25.209 0,-13.915 11.294,-25.209 25.209,-25.209 13.915,0 25.209,11.294 25.209,25.209 m -2.966,0.02 0,0 c 0,-12.278 -9.965,-22.243 -22.243,-22.243 -12.278,0 -22.243,9.965 -22.243,22.243 0,12.278 9.965,22.243 22.243,22.243 12.278,0 22.243,-9.965 22.243,-22.243"
             style="fill:#d5d7d8;fill-opacity:1;fill-rule:nonzero;stroke:none"
             id="path4417"
             inkscape:connector-curvature="0" /><path
             d="m 220.453,90.21 c 0,12.278 -9.965,22.243 -22.243,22.243 -12.278,0 -22.243,-9.965 -22.243,-22.243 0,-12.278 9.965,-22.243 22.243,-22.243 12.278,0 22.243,9.965 22.243,22.243 m -2.965,-0.01 0,0 c 0,-10.641 -8.637,-19.278 -19.278,-19.278 -10.641,0 -19.278,8.637 -19.278,19.278 0,10.641 8.637,19.277 19.278,19.277 10.641,0 19.278,-8.636 19.278,-19.277"
             style="fill:#d6d7d9;fill-opacity:1;fill-rule:nonzero;stroke:none"
             id="path4419"
             inkscape:connector-curvature="0" /><path
             d="m 217.488,90.21 c 0,10.641 -8.637,19.278 -19.278,19.278 -10.641,0 -19.278,-8.637 -19.278,-19.278 0,-10.641 8.637,-19.278 19.278,-19.278 10.641,0 19.278,8.637 19.278,19.278 m -2.966,-0.01 0,0 c 0,-9.004 -7.308,-16.312 -16.312,-16.312 -9.004,0 -16.312,7.308 -16.312,16.312 0,9.004 7.308,16.312 16.312,16.312 9.004,0 16.312,-7.308 16.312,-16.312"
             style="fill:#d7d8da;fill-opacity:1;fill-rule:nonzero;stroke:none"
             id="path4421"
             inkscape:connector-curvature="0" /><path
             d="m 214.522,90.18 c 0,9.004 -7.308,16.312 -16.312,16.312 -9.004,0 -16.312,-7.308 -16.312,-16.312 0,-9.004 7.308,-16.312 16.312,-16.312 9.004,0 16.312,7.308 16.312,16.312 m -2.966,0.02 0,0 c 0,-7.367 -5.979,-13.346 -13.346,-13.346 -7.367,0 -13.346,5.979 -13.346,13.346 0,7.367 5.979,13.346 13.346,13.346 7.367,0 13.346,-5.979 13.346,-13.346"
             style="fill:#d8d9db;fill-opacity:1;fill-rule:nonzero;stroke:none"
             id="path4423"
             inkscape:connector-curvature="0" /><path
             d="m 211.556,90.21 c 0,7.367 -5.979,13.346 -13.346,13.346 -7.367,0 -13.346,-5.979 -13.346,-13.346 0,-7.367 5.979,-13.346 13.346,-13.346 7.367,0 13.346,5.979 13.346,13.346 m -2.966,-0.01 0,0 c 0,-5.73 -4.65,-10.38 -10.38,-10.38 -5.73,0 -10.38,4.65 -10.38,10.38 0,5.73 4.65,10.38 10.38,10.38 5.73,0 10.38,-4.65 10.38,-10.38"
             style="fill:#d9dadb;fill-opacity:1;fill-rule:nonzero;stroke:none"
             id="path4425"
             inkscape:connector-curvature="0" /><path
             d="m 208.59,90.18 c 0,5.73 -4.65,10.38 -10.38,10.38 -5.73,0 -10.38,-4.65 -10.38,-10.38 0,-5.73 4.65,-10.38 10.38,-10.38 5.73,0 10.38,4.65 10.38,10.38 m -2.966,0.02 0,0 c 0,-4.093 -3.321,-7.415 -7.414,-7.415 -4.093,0 -7.414,3.322 -7.414,7.415 0,4.093 3.321,7.414 7.414,7.414 4.093,0 7.414,-3.321 7.414,-7.414"
             style="fill:#d9dbdc;fill-opacity:1;fill-rule:nonzero;stroke:none"
             id="path4427"
             inkscape:connector-curvature="0" /><path
             d="m 205.624,90.21 c 0,4.093 -3.321,7.414 -7.414,7.414 -4.093,0 -7.414,-3.321 -7.414,-7.414 0,-4.093 3.321,-7.414 7.414,-7.414 4.093,0 7.414,3.321 7.414,7.414 m -2.965,-0.01 0,0 c 0,-2.456 -1.993,-4.449 -4.449,-4.449 -2.456,0 -4.449,1.993 -4.449,4.449 0,2.456 1.993,4.449 4.449,4.449 2.456,0 4.449,-1.993 4.449,-4.449"
             style="fill:#dadbdd;fill-opacity:1;fill-rule:nonzero;stroke:none"
             id="path4429"
             inkscape:connector-curvature="0" /><path
             d="m 202.659,90.18 c 0,2.456 -1.993,4.449 -4.449,4.449 -2.456,0 -4.449,-1.993 -4.449,-4.449 0,-2.456 1.993,-4.449 4.449,-4.449 2.456,0 4.449,1.993 4.449,4.449 m -2.966,0.02 0,0 c 0,-0.819 -0.664,-1.483 -1.483,-1.483 -0.819,0 -1.483,0.664 -1.483,1.483 0,0.818 0.664,1.483 1.483,1.483 0.819,0 1.483,-0.665 1.483,-1.483"
             style="fill:#dbdcde;fill-opacity:1;fill-rule:nonzero;stroke:none"
             id="path4431"
             inkscape:connector-curvature="0" /><path
             d="m 199.693,90.21 c 0,0.819 -0.664,1.483 -1.483,1.483 -0.819,0 -1.483,-0.664 -1.483,-1.483 0,-0.819 0.664,-1.483 1.483,-1.483 0.819,0 1.483,0.664 1.483,1.483"
             style="fill:#dcddde;fill-opacity:1;fill-rule:nonzero;stroke:none"
             id="path4433"
             inkscape:connector-curvature="0" /></g></g></g><path
       d="m 251.18413,305.71852 22.17242,0 0,-24.69675 -22.17242,0 0,24.69675 z"
       style="fill:#d8ce25;fill-opacity:1;fill-rule:nonzero;stroke:none"
       id="path4435"
       inkscape:connector-curvature="0" /><path
       d="m 226.549,277.4529 22.17242,0 0,-25.84969 -22.17242,0 0,25.84969 z"
       style="fill:#008cd2;fill-opacity:1;fill-rule:nonzero;stroke:none"
       id="path4437"
       inkscape:connector-curvature="0" /><path
       d="m 201.91387,248.73207 22.17242,0 0,-25.84834 -22.17242,0 0,25.84834 z"
       style="fill:#ed1c24;fill-opacity:1;fill-rule:nonzero;stroke:none"
       id="path4439"
       inkscape:connector-curvature="0" /><path
       d="m 6.1849172,172.77868 c 3.545748,-2.34481 6.3154318,-3.33217 9.2518258,-3.33217 6.260245,0 10.968364,5.06101 10.968364,11.78682 0,9.99524 -12.242258,16.10508 -12.242258,21.10205 0,1.72884 1.439454,2.9006 3.489412,2.9006 1.884397,0 3.545747,-0.67872 7.313392,-3.02354 l 0,7.89887 c -2.936394,1.78902 -5.540518,2.59069 -8.255016,2.59069 -6.148722,0 -10.8579898,-4.68963 -10.8579898,-10.73672 0,-10.24239 11.7996138,-14.87055 11.7996138,-21.04186 0,-2.0349 -1.439454,-3.51658 -3.489412,-3.51658 -2.271853,0 -4.3769968,1.17305 -7.9779318,4.44247 l 0,-9.07063"
       style="fill:#231f20;fill-opacity:1;fill-rule:nonzero;stroke:none"
       id="path4441"
       inkscape:connector-curvature="0" /><path
       d="m 48.906348,172.90544 c -2.271854,-1.61519 -3.545748,-2.19558 -4.819641,-2.19558 -2.105144,0 -2.881208,1.93688 -2.881208,4.7142 l 0,12.65876 7.313392,0 0,5.87768 -7.313392,0 0,9.23538 -1.384267,0 -10.248637,-13.94958 0,-1.16348 3.656122,0 0,-14.40263 c 0,-7.62019 4.542558,-10.14015 8.475762,-10.14015 2.271854,0 4.155101,0.64606 7.201869,2.51996 l 0,6.84544"
       style="fill:#231f20;fill-opacity:1;fill-rule:nonzero;stroke:none"
       id="path4443"
       inkscape:connector-curvature="0" /><path
       d="m 76.5618,171.74331 c -1.053146,-0.84043 -1.772873,-1.16348 -2.32704,-1.16348 -0.66454,0 -0.774914,0.38872 -0.774914,3.23038 l 0,12.14138 c 0,6.71675 -4.376998,8.59064 -9.307013,8.59064 -4.155101,0 -7.091495,-1.09778 -10.637243,-4.06946 l 0,-6.7811 c 3.435374,3.22902 5.983162,4.52118 8.752846,4.52118 2.216667,0 3.213478,-1.22781 3.213478,-4.06947 l 0,-1.03346 c -8.03197,-3.10035 -13.682861,-5.94201 -13.682861,-12.07703 0,-4.26248 2.880057,-7.49285 6.592515,-7.49285 2.714498,0 4.708118,1.16346 7.422616,4.19814 0.387457,-2.77731 1.717687,-4.13246 4.099914,-4.13246 1.938434,0 3.821682,0.83909 6.647702,2.84165 l 0,5.29594 z m -11.079886,0.0644 c -1.717687,-1.61518 -2.437414,-2.00256 -3.711308,-2.00256 -1.662501,0 -2.770834,1.29214 -2.770834,3.16469 0,2.64863 2.216667,4.19813 6.482142,6.00634 l 0,-7.16847"
       style="fill:#231f20;fill-opacity:1;fill-rule:evenodd;stroke:none"
       id="path4445"
       inkscape:connector-curvature="0" /><path
       d="m 95.892103,164.12177 7.976777,0 0,44.11269 -7.976777,0 0,-16.98695 c -2.4926,2.45429 -4.265474,3.29472 -6.702888,3.29472 -5.927975,0 -10.083076,-6.39507 -10.083076,-15.50042 0,-8.91369 4.210288,-15.50177 9.861179,-15.50177 2.492601,0 4.542559,1.03345 6.924785,3.55341 l 0,-2.97168 z m 0,9.49408 c -1.32908,-2.13124 -2.65931,-3.10036 -4.265474,-3.10036 -2.659311,0 -4.210288,3.10036 -4.210288,8.46063 0,5.42596 1.606164,8.46063 4.431035,8.46063 1.495791,0 2.493751,-0.64473 4.044727,-2.45428 l 0,-11.36662"
       style="fill:#231f20;fill-opacity:1;fill-rule:evenodd;stroke:none"
       id="path4447"
       inkscape:connector-curvature="0" /><path
       d="m 127.42903,172.90544 c -2.27071,-1.61519 -3.5446,-2.19558 -4.81964,-2.19558 -2.104,0 -2.88006,1.93688 -2.88006,4.7142 l 0,12.65876 7.31224,0 0,5.87768 -7.31224,0 0,9.23538 -1.38542,0 -10.24864,-13.94958 0,-1.16348 3.65613,0 0,-14.40263 c 0,-7.62019 4.5437,-10.14015 8.47691,-10.14015 2.2707,0 4.15395,0.64606 7.20072,2.51996 l 0,6.84544"
       style="fill:#231f20;fill-opacity:1;fill-rule:nonzero;stroke:none"
       id="path4449"
       inkscape:connector-curvature="0" /><path
       d="m 139.24129,163.54004 4.09876,0 5.26344,17.63301 0.11037,0 5.37381,-17.63301 4.04358,0 9.52891,30.42046 -7.58933,0 -4.09991,-15.30741 -0.11038,0 -4.54256,15.30741 -5.31862,0 -4.54255,-15.30741 -0.11038,0 -4.09991,15.30741 -7.58933,0 9.5841,-30.42046"
       style="fill:#231f20;fill-opacity:1;fill-rule:nonzero;stroke:none"
       id="path4451"
       inkscape:connector-curvature="0" /><path
       d="m 190.59829,172.13068 c -2.54778,-1.74386 -4.48737,-2.38994 -6.6477,-2.38994 -3.76649,0 -6.03835,2.77732 -6.4258,7.88024 l 13.79438,0 c 0.16556,11.62532 -4.59889,16.92125 -10.52572,16.92125 -6.53733,0 -11.35697,-6.78244 -11.35697,-16.08216 0,-6.00635 2.32704,-14.92003 11.85595,-14.92003 3.32385,0 6.31428,0.90477 9.30586,2.97167 l 0,5.61897 z m -13.0735,9.75277 c 0,4.64986 1.10833,7.36285 3.26866,7.36285 2.10514,0 3.10195,-2.45428 3.15714,-7.36285 l -6.4258,0"
       style="fill:#231f20;fill-opacity:1;fill-rule:evenodd;stroke:none"
       id="path4453"
       inkscape:connector-curvature="0" /><path
       d="m 196.53547,164.12177 7.97793,0 0,4.58551 c 0,8.20328 1.88325,17.05129 6.09353,17.05129 0.99681,0 2.10515,-0.5174 3.32385,-1.48651 l 1.71654,8.26762 c -1.60616,1.16212 -3.15714,1.74385 -4.59774,1.74385 -3.04677,0 -5.31747,-3.74643 -7.03516,-11.62531 l -0.11038,0 0,11.30228 -7.36857,0 0,-29.83873"
       style="fill:#231f20;fill-opacity:1;fill-rule:nonzero;stroke:none"
       id="path4455"
       inkscape:connector-curvature="0" /><path
       d="m 218.59521,164.12177 7.97794,0 0,14.92004 0.11037,0 8.75285,-14.92004 8.69765,0 -8.9184,15.17739 7.53414,14.66134 -8.36539,0 -7.70085,-14.91869 -0.11037,0 0,29.19265 -7.97794,0 0,-44.11269"
       style="fill:#231f20;fill-opacity:1;fill-rule:evenodd;stroke:none"
       id="path4457"
       inkscape:connector-curvature="0" /><path
       d="m 266.03166,172.13068 c -2.54779,-1.74386 -4.48737,-2.38994 -6.6477,-2.38994 -3.7665,0 -6.03835,2.77732 -6.42581,7.88024 l 13.79439,0 c 0.16556,11.62532 -4.5989,16.92125 -10.52572,16.92125 -6.53733,0 -11.35697,-6.78244 -11.35697,-16.08216 0,-6.00635 2.32704,-14.92003 11.8548,-14.92003 3.32385,0 6.31543,0.90477 9.30701,2.97167 l 0,5.61897 z m -13.07351,9.75277 c 0,4.64986 1.10834,7.36285 3.26867,7.36285 2.10514,0 3.10195,-2.45428 3.15714,-7.36285 l -6.42581,0"
       style="fill:#231f20;fill-opacity:1;fill-rule:evenodd;stroke:none"
       id="path4459"
       inkscape:connector-curvature="0" /><path
       d="m 38.058706,223.41855 3.212327,0 0,13.45229 4.256277,0 0,3.48236 -4.256277,0 0,8.66304 4.555205,0 0,3.48237 -7.767532,0 0,-29.08006"
       style="fill:#231f20;fill-opacity:1;fill-rule:nonzero;stroke:none"
       id="path4461"
       inkscape:connector-curvature="0" /><path
       d="m 54.412375,223.41855 2.913399,0 0,7.66174 c 0,2.21971 0.895635,8.35876 3.136446,8.35876 0.447243,0 0.820903,-0.13135 1.269295,-0.47852 l 0.224196,3.48238 c -0.485183,0.39139 -0.933575,0.56563 -1.493491,0.56563 -1.381967,0 -1.903942,-0.91415 -3.061714,-5.52915 l -0.07473,0 0,5.22488 -2.913399,0 0,-19.28572"
       style="fill:#231f20;fill-opacity:1;fill-rule:nonzero;stroke:none"
       id="path4463"
       inkscape:connector-curvature="0" /><path
       d="m 77.417195,227.94509 c -0.820903,-1.26133 -1.754478,-1.91543 -2.837518,-1.91543 -1.941883,0 -2.950191,2.22104 -2.950191,6.26906 l 6.124578,0 c 0.03679,4.65925 -0.523124,7.0961 -0.971517,8.05448 -0.709379,1.52405 -1.679746,2.8725 -3.472165,2.8725 -2.9134,0 -4.593146,-3.78665 -4.593146,-10.14284 0,-6.74759 2.016615,-10.18706 5.302525,-10.18706 1.232504,0 2.314394,0.52275 3.397434,1.69828 l 0,3.35101 z m -5.8245,6.87895 c 0,3.65662 0.485183,5.44204 1.568223,5.44204 1.157772,0 1.679746,-1.74118 1.679746,-5.44204 l -3.247969,0"
       style="fill:#231f20;fill-opacity:1;fill-rule:evenodd;stroke:none"
       id="path4465"
       inkscape:connector-curvature="0" /><path
       d="m 86.605786,223.41855 2.91225,0 0,19.28572 -2.91225,0 0,-19.28572 z m -0.224196,27.51312 c 0,-1.08841 0.74732,-1.95833 1.680896,-1.95833 0.933576,0 1.679746,0.86992 1.679746,1.95833 0,1.0884 -0.74617,1.95967 -1.679746,1.95967 -0.933576,0 -1.680896,-0.87127 -1.680896,-1.95967"
       style="fill:#231f20;fill-opacity:1;fill-rule:evenodd;stroke:none"
       id="path4467"
       inkscape:connector-curvature="0" /><path
       d="m 97.988053,224.46272 c 1.15777,-1.0884 2.128137,-1.56692 3.247967,-1.56692 2.2776,0 3.95849,2.08968 3.95849,4.96349 0,4.61369 -4.331,8.05316 -4.331,10.83986 0,0.86992 0.44724,1.43557 1.15662,1.43557 0.74732,0 1.49349,-0.3914 2.5018,-1.34845 l 0,3.221 c -0.93358,0.82703 -1.82921,1.21843 -2.76279,1.21843 -2.091347,0 -3.584837,-1.91544 -3.584837,-4.52655 0,-4.35363 4.144757,-8.01026 4.144757,-10.92831 0,-0.95705 -0.63465,-1.65405 -1.45555,-1.65405 -0.896787,0 -1.680897,0.56697 -2.875457,2.08968 l 0,-3.74375"
       style="fill:#231f20;fill-opacity:1;fill-rule:nonzero;stroke:none"
       id="path4469"
       inkscape:connector-curvature="0" /><path
       d="m 113.74847,223.41855 2.91225,0 0,19.28572 -2.91225,0 0,-19.28572 z m -0.2242,27.51312 c 0,-1.08841 0.74617,-1.95833 1.67975,-1.95833 0.93357,0 1.68089,0.86992 1.68089,1.95833 0,1.0884 -0.74732,1.95967 -1.68089,1.95967 -0.93358,0 -1.67975,-0.87127 -1.67975,-1.95967"
       style="fill:#231f20;fill-opacity:1;fill-rule:evenodd;stroke:none"
       id="path4471"
       inkscape:connector-curvature="0" /><path
       d="m 125.91369,223.41855 2.9134,0 0,14.27932 c 0.67144,1.52271 1.38082,2.30684 2.2776,2.30684 1.19457,0 1.56823,-1.13131 1.56823,-2.78671 l 0,-13.79945 2.91225,0 0,13.88658 c 0,3.83221 -1.60502,5.70341 -3.62163,5.70341 -1.30724,0 -2.16608,-0.697 -3.06172,-2.39395 l -0.0747,0 0,2.08968 -2.9134,0 0,-19.28572"
       style="fill:#231f20;fill-opacity:1;fill-rule:nonzero;stroke:none"
       id="path4473"
       inkscape:connector-curvature="0" /><path
       d="m 154.92007,239.74332 0,2.96095 -5.6394,0 c -3.24796,0 -4.89092,-3.17809 -4.89092,-7.31458 0,-3.04674 0.8209,-5.22355 2.53859,-6.61623 -1.53143,-0.69701 -2.31439,-1.74252 -2.31439,-3.09097 0,-1.26266 0.55991,-2.13393 1.86715,-2.83094 -1.79357,-0.86992 -2.83867,-2.6111 -2.83867,-4.74502 0,-3.04673 2.35233,-5.35491 5.48878,-5.35491 3.39858,0 5.75092,2.43819 5.75092,5.96479 0,1.43692 -0.37366,3.00384 -1.19456,3.96224 -2.46501,2.87248 -6.19931,1.39268 -6.19931,3.83087 0,2.17681 2.42706,0.56564 4.44368,2.91672 1.08304,1.26265 1.71768,2.91671 1.71768,5.61629 0,1.95833 -0.29777,3.48237 -0.93357,4.70079 l 2.20402,0 z m -7.87906,-4.35363 c 0,2.91672 0.78411,4.74503 2.01662,4.74503 1.19456,0 1.94073,-1.91544 1.94073,-4.96217 0,-2.87383 -0.74617,-4.61501 -1.94073,-4.61501 -1.27045,0 -2.01662,1.82831 -2.01662,4.83215 z m -0.74732,-16.84753 c 0,1.78541 1.11983,3.04674 2.76394,3.04674 1.75448,0 3.17324,-1.34845 3.17324,-3.04674 0,-1.65406 -1.30609,-2.91672 -3.02493,-2.91672 -1.75448,0 -2.91225,1.17553 -2.91225,2.91672"
       style="fill:#231f20;fill-opacity:1;fill-rule:evenodd;stroke:none"
       id="path4475"
       inkscape:connector-curvature="0" /><path
       d="m 170.89318,227.94509 c -0.82205,-1.26133 -1.75563,-1.91543 -2.83867,-1.91543 -1.94073,0 -2.94904,2.22104 -2.94904,6.26906 l 6.12343,0 c 0.0379,4.65925 -0.52313,7.0961 -0.97037,8.05448 -0.70938,1.52405 -1.68089,2.8725 -3.47331,2.8725 -2.91225,0 -4.59315,-3.78665 -4.59315,-10.14284 0,-6.74759 2.01662,-10.18706 5.30253,-10.18706 1.2325,0 2.31554,0.52275 3.39858,1.69828 l 0,3.35101 z m -5.82565,6.87895 c 0,3.65662 0.48518,5.44204 1.56822,5.44204 1.15777,0 1.6809,-1.74118 1.6809,-5.44204 l -3.24912,0"
       style="fill:#231f20;fill-opacity:1;fill-rule:evenodd;stroke:none"
       id="path4477"
       inkscape:connector-curvature="0" /><path
       d="m 180.11856,223.41855 2.91225,0 0,7.66174 c 0,2.21971 0.89679,8.35876 3.1376,8.35876 0.44724,0 0.8209,-0.13135 1.26929,-0.47852 l 0.2242,3.48238 c -0.48633,0.39139 -0.93358,0.56563 -1.49349,0.56563 -1.38197,0 -1.90509,-0.91415 -3.06287,-5.52915 l -0.0747,0 0,5.22488 -2.91225,0 0,-19.28572"
       style="fill:#231f20;fill-opacity:1;fill-rule:nonzero;stroke:none"
       id="path4479"
       inkscape:connector-curvature="0" /><path
       d="m 39.669468,119.93402 1.990172,0 6.053295,24.78005 -4.339057,0 -2.737492,-12.60516 -0.05519,0 -2.901902,12.60516 -4.340207,0 6.330378,-24.78005"
       style="fill:#231f20;fill-opacity:1;fill-rule:nonzero;stroke:none"
       id="path4481"
       inkscape:connector-curvature="0" /><path
       d="m 58.473198,124.69648 c -1.271594,-0.96643 -2.238511,-1.32432 -3.316952,-1.32432 -1.879798,0 -3.012276,1.53878 -3.206579,4.36838 l 6.883395,0 c 0.08278,6.446 -2.294848,9.38147 -5.251938,9.38147 -3.261766,0 -5.666987,-3.75982 -5.666987,-8.91636 0,-3.32956 1.16122,-8.27163 5.915328,-8.27163 1.659051,0 3.151392,0.50131 4.643733,1.64736 l 0,3.1151 z m -6.523531,5.40718 c 0,2.57895 0.553017,4.08288 1.631457,4.08288 1.049698,0 1.547528,-1.36185 1.575122,-4.08288 l -3.206579,0"
       style="fill:#231f20;fill-opacity:1;fill-rule:evenodd;stroke:none"
       id="path4483"
       inkscape:connector-curvature="0" /><path
       d="m 61.987904,120.25706 3.981493,0 0,2.54141 c 0,4.54799 0.939324,9.45387 3.039869,9.45387 0.49783,0 1.050847,-0.28685 1.659051,-0.82301 l 0.856544,4.58283 c -0.801357,0.64474 -1.575121,0.96644 -2.293699,0.96644 -1.521084,0 -2.653562,-2.07629 -3.511255,-6.44466 l -0.05519,0 0,6.26639 -3.676816,0 0,-16.54327"
       style="fill:#231f20;fill-opacity:1;fill-rule:nonzero;stroke:none"
       id="path4485"
       inkscape:connector-curvature="0" /><path
       d="m 73.051694,121.33072 c 1.685495,-1.00262 3.012276,-1.3967 4.339057,-1.3967 2.792679,0 4.755257,2.21972 4.755257,5.37101 0,5.62298 -6.220005,5.15653 -6.220005,7.37758 0,0.71576 0.580611,1.18089 1.548678,1.18089 0.607054,0 1.215258,-0.10724 1.879798,-0.35789 0.690984,-0.28685 1.409561,-0.68092 2.293699,-1.28947 l 0,3.40195 c -1.437155,1.03881 -2.763936,1.50392 -4.145904,1.50392 -2.737492,0 -4.672477,-2.14865 -4.672477,-5.26375 0,-5.19273 5.777362,-4.72627 5.777362,-6.98217 0,-0.93158 -0.608204,-1.43289 -1.464748,-1.43289 -1.216408,0 -2.488002,0.5375 -4.090717,1.71974 l 0,-3.83222"
       style="fill:#231f20;fill-opacity:1;fill-rule:nonzero;stroke:none"
       id="path4487"
       inkscape:connector-curvature="0" /><path
       d="m 96.857873,128.45632 c 0,5.37098 -2.95824,8.66569 -6.220006,8.66569 -3.123799,0 -6.192412,-3.11509 -6.192412,-8.66569 0,-4.94073 2.598376,-8.62953 6.192412,-8.62953 3.649223,0 6.220006,3.61641 6.220006,8.62953 z m -4.202241,0 c 0,-3.36576 -0.608204,-4.8697 -2.017765,-4.8697 -1.381968,0 -2.045358,1.50394 -2.045358,4.8697 0,3.18748 0.66339,4.90587 2.045358,4.90587 1.409561,0 2.017765,-1.71839 2.017765,-4.90587"
       style="fill:#231f20;fill-opacity:1;fill-rule:evenodd;stroke:none"
       id="path4489"
       inkscape:connector-curvature="0" /><path
       d="m 99.960973,120.25706 3.980347,0 0,2.54141 c 0,4.54799 0.94047,9.45387 3.04102,9.45387 0.49783,0 1.0497,-0.28685 1.6579,-0.82301 l 0.8577,4.58283 c -0.80251,0.64474 -1.57628,0.96644 -2.29485,0.96644 -1.51994,0 -2.65357,-2.07629 -3.51011,-6.44466 l -0.0552,0 0,6.26639 -3.676817,0 0,-16.54327"
       style="fill:#231f20;fill-opacity:1;fill-rule:nonzero;stroke:none"
       id="path4491"
       inkscape:connector-curvature="0" /><path
       d="m 122.66112,134.0793 0,3.04271 -6.02685,0 c -3.64807,0 -5.8038,-2.7572 -5.8038,-6.194 0,-2.29208 0.74617,-3.97563 2.40407,-5.33614 -1.40956,-0.46511 -2.10055,-1.54013 -2.10055,-2.7934 0,-1.25329 0.60821,-2.18352 1.85221,-2.68484 l 0,-0.0724 c -1.79702,-0.53749 -2.84787,-1.89801 -2.84787,-3.65259 0,-1.57498 1.13363,-4.43942 6.16482,-4.43942 4.42299,0 6.33038,2.36313 6.33038,5.29861 0,1.21843 -0.27708,2.32829 -1.05085,3.33091 -2.2661,2.93682 -7.43526,0.75196 -7.43526,2.7572 0,1.96907 3.81478,0.10725 5.99811,2.93683 0.85654,1.10985 1.27159,2.50656 1.27159,3.86707 0,1.50393 -0.35986,2.64997 -1.27159,3.93944 l 2.51559,0 z m -8.23777,-3.43813 c 0,2.11248 0.6358,3.29471 1.76943,3.29471 1.16007,0 1.79587,-1.18223 1.79587,-3.33091 0,-2.32693 -0.60706,-3.50917 -1.76828,-3.50917 -1.18881,0 -1.79702,1.18224 -1.79702,3.54537 z m -0.88413,-13.82225 c 0,1.21709 1.13247,2.00525 2.9019,2.00525 1.99017,0 2.93064,-0.75197 2.93064,-2.07762 0,-1.28813 -1.02325,-1.96906 -2.90305,-1.96906 -1.96258,0 -2.92949,0.68093 -2.92949,2.04143"
       style="fill:#231f20;fill-opacity:1;fill-rule:evenodd;stroke:none"
       id="path4493"
       inkscape:connector-curvature="0" /><path
       d="m 132.44412,120.25706 3.98034,0 0,16.54327 -3.98034,0 0,-10.49268 c -0.35871,-1.5388 -1.10488,-2.61379 -2.21092,-2.61379 -1.07844,0 -1.54867,0.85919 -1.54867,2.7572 l 0,10.34927 -3.98035,0 0,-10.63611 c 0,-4.5118 1.96258,-6.2302 4.14706,-6.2302 2.10054,0 3.09505,1.3967 3.53769,2.43552 l 0.0552,0 0,-2.11248"
       style="fill:#231f20;fill-opacity:1;fill-rule:nonzero;stroke:none"
       id="path4495"
       inkscape:connector-curvature="0" /><path
       d="m 140.07484,120.25706 3.98034,0 0,10.45515 c 0.52542,1.71974 1.244,2.64998 2.18448,2.64998 1.10488,0 1.54752,-1.14605 1.54752,-2.97168 l 0,-10.13345 3.98035,0 0,10.95646 c 0,3.83222 -1.63031,5.90849 -4.06313,5.90849 -1.49234,0 -2.65356,-0.85919 -3.59403,-2.64997 l -0.0552,0 0,2.32829 -3.98034,0 0,-16.54327"
       style="fill:#231f20;fill-opacity:1;fill-rule:nonzero;stroke:none"
       id="path4497"
       inkscape:connector-curvature="0" /><path
       d="m 166.91744,134.0793 0,3.04271 -6.02686,0 c -3.64807,0 -5.80495,-2.7572 -5.80495,-6.194 0,-2.29208 0.74617,-3.97563 2.40522,-5.33614 -1.40956,-0.46511 -2.10054,-1.54013 -2.10054,-2.7934 0,-1.25329 0.6082,-2.18352 1.8522,-2.68484 l 0,-0.0724 c -1.79702,-0.53749 -2.84786,-1.89801 -2.84786,-3.65259 0,-1.57498 1.13362,-4.43942 6.16481,-4.43942 4.42184,0 6.33038,2.36313 6.33038,5.29861 0,1.21843 -0.27708,2.32829 -1.05085,3.33091 -2.26725,2.93682 -7.43641,0.75196 -7.43641,2.7572 0,1.96907 3.81478,0.10725 5.99926,2.93683 0.85654,1.10985 1.27159,2.50656 1.27159,3.86707 0,1.50393 -0.35986,2.64997 -1.27159,3.93944 l 2.5156,0 z m -8.23777,-3.43813 c 0,2.11248 0.63579,3.29471 1.76827,3.29471 1.16122,0 1.79702,-1.18223 1.79702,-3.33091 0,-2.32693 -0.60821,-3.50917 -1.76828,-3.50917 -1.18881,0 -1.79701,1.18224 -1.79701,3.54537 z m -0.88529,-13.82225 c 0,1.21709 1.13363,2.00525 2.90305,2.00525 1.99017,0 2.9295,-0.75197 2.9295,-2.07762 0,-1.28813 -1.02211,-1.96906 -2.90191,-1.96906 -1.96257,0 -2.93064,0.68093 -2.93064,2.04143"
       style="fill:#231f20;fill-opacity:1;fill-rule:evenodd;stroke:none"
       id="path4499"
       inkscape:connector-curvature="0" /><path
       d="m 168.65582,121.33072 c 1.68664,-1.00262 3.01342,-1.3967 4.3402,-1.3967 2.79268,0 4.75411,2.21972 4.75411,5.37101 0,5.62298 -6.21885,5.15653 -6.21885,7.37758 0,0.71576 0.58061,1.18089 1.54752,1.18089 0.60821,0 1.21641,-0.10724 1.8798,-0.35789 0.69099,-0.28685 1.40956,-0.68092 2.29485,-1.28947 l 0,3.40195 c -1.43715,1.03881 -2.76393,1.50392 -4.14705,1.50392 -2.73634,0 -4.67133,-2.14865 -4.67133,-5.26375 0,-5.19273 5.77736,-4.72627 5.77736,-6.98217 0,-0.93158 -0.6082,-1.43289 -1.46475,-1.43289 -1.2164,0 -2.488,0.5375 -4.09186,1.71974 l 0,-3.83222"
       style="fill:#231f20;fill-opacity:1;fill-rule:nonzero;stroke:none"
       id="path4501"
       inkscape:connector-curvature="0" /><path
       d="m 180.07832,130.85563 7.43641,0 0,-4.76245 -7.43641,0 0,4.76245 z"
       style="fill:#231f20;fill-opacity:1;fill-rule:nonzero;stroke:none"
       id="path4503"
       inkscape:connector-curvature="0" /><path
       d="m 204.32369,133.43457 -6.41315,0 0,-4.11906 2.12813,0 0,-4.11771 c -0.58061,-0.42895 -1.244,-0.64475 -1.82461,-0.64475 -2.43166,0 -3.67566,3.04406 -3.67566,7.62825 0,5.29861 1.71308,8.23543 4.69892,8.23543 1.68664,0 2.76393,-0.64473 4.42298,-2.39931 l 0,5.08548 c -1.68549,1.32433 -3.31695,1.93287 -5.00359,1.93287 -4.91967,0 -8.48611,-5.40719 -8.48611,-12.92686 0,-7.05455 3.37214,-12.17489 8.01587,-12.17489 2.32244,0 4.39539,1.14605 6.13722,2.86445 l 0,10.6361"
       style="fill:#231f20;fill-opacity:1;fill-rule:nonzero;stroke:none"
       id="path4505"
       inkscape:connector-curvature="0" /><path
       d="m 207.67399,120.25706 3.98149,0 0,10.59857 c 0.74617,1.64736 1.40956,2.43552 2.23851,2.43552 0.99566,0 1.49349,-1.25328 1.49349,-3.29472 l 0,-9.73937 3.98035,0 0,10.74199 c 0.69098,1.54013 1.46475,2.2921 2.32129,2.2921 1.244,0 1.40956,-1.43289 1.40956,-4.04668 l 0,-8.98741 3.98149,0 0,10.99265 c 0,4.18877 -2.23966,5.8723 -4.11946,5.8723 -1.74183,0 -3.01227,-1.10985 -3.89756,-3.36574 -0.6082,2.14867 -1.8798,3.36574 -3.56529,3.36574 -1.49349,0 -2.73749,-0.89538 -3.78719,-2.86443 l -0.0552,0 0,2.54275 -3.98149,0 0,-16.54327"
       style="fill:#231f20;fill-opacity:1;fill-rule:nonzero;stroke:none"
       id="path4507"
       inkscape:connector-curvature="0" /><path
       d="m 230.73974,120.25706 3.98035,0 0,1.43155 c 0.96806,-1.14605 1.82461,-1.61116 2.98583,-1.61116 3.04102,0 5.30712,3.6526 5.30712,8.48609 0,4.97826 -2.23851,8.55847 -5.33471,8.55847 -1.02326,0 -1.85221,-0.32168 -2.95824,-1.10985 l 0,8.70191 -3.98035,0 0,-24.45701 z m 3.98035,12.03146 c 0.66339,0.75197 1.244,1.07367 1.8798,1.07367 1.40956,0 2.26725,-1.898 2.26725,-4.86969 0,-2.90063 -0.80251,-4.65523 -2.10169,-4.65523 -0.77377,0 -1.46475,0.53751 -2.04536,1.54014 l 0,6.91111"
       style="fill:#231f20;fill-opacity:1;fill-rule:evenodd;stroke:none"
       id="path4509"
       inkscape:connector-curvature="0" /><path
       d="m 246.5312,120.25706 4.28502,0 0,10.24068 4.72651,0 0,-10.24068 4.28502,0 0,24.45701 -4.28502,0 0,-9.99137 -4.72651,0 0,9.99137 -4.28502,0 0,-24.45701"
       style="fill:#231f20;fill-opacity:1;fill-rule:nonzero;stroke:none"
       id="path4511"
       inkscape:connector-curvature="0" /></g></svg>